<svg id="svg" version="1.1" xmlns="http://www.w3.org/2000/svg" xmlns:xlink="http://www.w3.org/1999/xlink" 
width="400" height="325.45454545454544" viewBox="0, 0, 400,325.45454545454544"><g id="svgg"><path id="path0" 
d="M0.000 162.734 L 0.000 325.468 200.000 325.468 L 400.000 325.468 400.000 162.734 L 400.000 0.000 200.000 0.000 
L 0.000 0.000 0.000 162.734 M213.120 19.227 C 234.779 20.967,261.869 29.987,277.624 40.704 C 278.072 41.009,279.756 
42.110,281.367 43.152 C 336.301 78.679,359.837 149.667,337.302 211.861 C 334.543 219.475,330.233 228.754,326.919 234.213 
C 326.121 235.528,325.468 236.678,325.468 236.769 C 325.468 237.186,320.213 244.963,317.342 248.795 C 294.826 278.850,261.927 
298.881,224.573 305.276 C 209.309 307.890,191.035 307.830,175.264 305.115 C 109.714 293.829,59.950 239.622,55.011 174.125
 C 54.161 162.850,54.963 146.598,56.818 137.510 C 58.945 127.085,60.434 121.645,63.412 113.426 C 73.650 85.161,94.453 59.128,120.098
  42.486 C 121.977 41.266,123.912 39.996,124.397 39.662 C 124.882 39.329,125.353 39.056,125.443 39.056 C 125.534 39.056,127.041 
  38.226,128.792 37.211 C 132.036 35.332,139.010 31.909,142.654 30.408 C 143.763 29.951,145.157 29.355,145.751 29.083 C 146.346 
  28.811,148.689 27.933,150.959 27.132 C 170.823 20.122,191.509 17.491,213.120 19.227 M215.276 78.146 C 215.154 78.344,214.772
   79.405,214.428 80.506 C 213.568 83.253,209.086 98.153,208.099 101.546 C 207.656 103.068,206.576 106.583,205.698 109.357 
   C 204.820 112.132,203.570 116.233,202.919 118.470 C 202.268 120.708,200.639 126.127,199.299 130.513 C 197.959 134.898,195.473
    143.100,193.775 148.739 C 192.077 154.378,190.120 160.822,189.426 163.059 C 188.732 165.297,187.793 168.373,187.338 169.894 
    C 185.752 175.208,180.809 191.474,180.365 192.840 C 180.191 193.377,179.744 194.841,179.374 196.094 C 179.003 197.347,177.433
     202.547,175.884 207.648 C 174.336 212.750,172.950 217.364,172.804 217.901 C 172.463 219.157,168.077 233.610,163.855 247.395
      C 163.669 248.000,179.433 248.577,182.890 248.092 L 184.657 247.844 185.541 245.077 C 186.028 243.556,187.677 238.126,189.205
       233.011 C 190.734 227.896,192.664 221.525,193.495 218.853 C 194.325 216.181,195.591 212.018,196.308 209.601 C
        197.917 204.179,198.445 202.431,200.092 197.071 C 200.808 194.744,202.572 188.934,204.014 184.161 
        C 205.455 179.388,207.218 173.603,207.931 171.305 C 208.644 169.008,209.618 165.810,210.095 164.199 
        C 210.572 162.587,211.160 160.683,211.401 159.967 C 211.642 159.251,212.135 157.640,212.497 156.387 
        C 212.859 155.134,213.832 151.912,214.659 149.227 C 216.271 143.996,216.829 142.146,217.534 139.707 
        C 217.779 138.857,219.188 134.207,220.665 129.373 C 222.142 124.540,223.468 120.146,223.613 119.609 C 223.757 119.072,224.409 116.949,225.061 114.890 C 225.713 112.832,226.520 110.195,226.854 109.032 C 227.188 107.868,228.577 103.255,229.940 98.779 C 234.924 82.422,235.958 78.915,235.961 78.356 C 235.965 77.662,215.703 77.456,215.276 78.146 M125.142 127.797 C 102.037 150.627,89.829 162.869,89.829 163.209 C 89.829 163.715,135.967 209.683,136.341 209.550 C 136.514 209.489,139.682 206.458,143.380 202.814 L 150.104 196.190 133.392 179.647 L 116.680 163.104 133.536 146.440 C 142.807 137.275,150.350 129.665,150.298 129.528 C 150.152 129.143,136.988 116.516,136.747 116.530 C 136.630 116.536,131.408 121.607,125.142 127.797 M256.865 122.883 C 253.246 126.396,250.285 129.371,250.285 129.496 C 250.285 129.788,253.404 132.946,269.919 149.376 C 277.379 156.797,283.483 162.990,283.483 163.138 C 283.483 163.287,276.050 170.790,266.965 179.814 L 250.448 196.220 257.117 202.910 C 260.785 206.590,263.935 209.601,264.117 209.601 C 264.450 209.601,310.582 163.615,310.748 163.117 C 310.854 162.801,264.387 116.723,263.828 116.589 C 263.618 116.538,260.485 119.371,256.865 122.883 " stroke="none" fill="none" fill-rule="evenodd"></path><path id="path1" d="M190.073 19.031 C 174.413 20.239,155.927 24.431,145.751 29.083 C 145.157 29.355,143.763 29.951,142.654 30.408 C 139.010 31.909,132.036 35.332,128.792 37.211 C 127.041 38.226,125.534 39.056,125.443 39.056 C 125.353 39.056,124.882 39.329,124.397 39.662 C 123.912 39.996,121.977 41.266,120.098 42.486 C 90.518 61.682,67.941 92.799,59.420 126.119 C 57.496 133.641,56.506 138.558,55.847 143.857 C 53.665 161.398,54.502 179.357,58.253 195.443 C 71.407 251.856,117.646 295.194,175.264 305.115 C 191.035 307.830,209.309 307.890,224.573 305.276 C 261.927 298.881,294.826 278.850,317.342 248.795 C 320.213 244.963,325.468 237.186,325.468 236.769 C 325.468 236.678,326.121 235.528,326.919 234.213 C 343.875 206.282,349.966 167.860,342.879 133.550 C 335.375 97.219,312.116 63.038,281.367 43.152 C 279.756 42.110,278.072 41.009,277.624 40.704 C 255.529 25.674,219.520 16.759,190.073 19.031 M235.961 78.356 C 235.958 78.915,234.924 82.422,229.940 98.779 C 228.577 103.255,227.188 107.868,226.854 109.032 C 226.520 110.195,225.713 112.832,225.061 114.890 C 224.409 116.949,223.757 119.072,223.613 119.609 C 223.468 120.146,222.142 124.540,220.665 129.373 C 219.188 134.207,217.779 138.857,217.534 139.707 C 216.829 142.146,216.271 143.996,214.659 149.227 C 213.832 151.912,212.859 155.134,212.497 156.387 C 212.135 157.640,211.642 159.251,211.401 159.967 C 211.160 160.683,210.572 162.587,210.095 164.199 C 209.618 165.810,208.644 169.008,207.931 171.305 C 207.218 173.603,205.455 179.388,204.014 184.161 C 202.572 188.934,200.808 194.744,200.092 197.071 C 198.445 202.431,197.917 204.179,196.308 209.601 C 195.591 212.018,194.325 216.181,193.495 218.853 C 192.664 221.525,190.734 227.896,189.205 233.011 C 187.677 238.126,186.028 243.556,185.541 245.077 L 184.657 247.844 182.890 248.092 C 179.433 248.577,163.669 248.000,163.855 247.395 C 168.077 233.610,172.463 219.157,172.804 217.901 C 172.950 217.364,174.336 212.750,175.884 207.648 C 177.433 202.547,179.003 197.347,179.374 196.094 C 179.744 194.841,180.191 193.377,180.365 192.840 C 180.809 191.474,185.752 175.208,187.338 169.894 C 187.793 168.373,188.732 165.297,189.426 163.059 C 190.120 160.822,192.077 154.378,193.775 148.739 C 195.473 143.100,197.959 134.898,199.299 130.513 C 200.639 126.127,202.268 120.708,202.919 118.470 C 203.570 116.233,204.820 112.132,205.698 109.357 C 206.576 106.583,207.656 103.068,208.099 101.546 C 209.086 98.153,213.568 83.253,214.428 80.506 C 214.772 79.405,215.154 78.344,215.276 78.146 C 215.703 77.456,235.965 77.662,235.961 78.356 M143.582 122.898 C 147.224 126.408,150.246 129.391,150.298 129.528 C 150.350 129.665,142.807 137.275,133.536 146.440 L 116.680 163.104 133.392 179.647 L 150.104 196.190 143.380 202.814 C 139.682 206.458,136.514 209.489,136.341 209.550 C 135.967 209.683,89.829 163.715,89.829 163.209 C 89.829 162.739,136.246 116.558,136.747 116.530 C 136.864 116.523,139.940 119.389,143.582 122.898 M287.524 139.765 C 300.346 152.461,310.797 162.970,310.748 163.117 C 310.582 163.615,264.450 209.601,264.117 209.601 C 263.935 209.601,260.785 206.590,257.117 202.910 L 250.448 196.220 266.965 179.814 C 276.050 170.790,283.483 163.287,283.483 163.138 C 283.483 162.990,277.379 156.797,269.919 149.376 C 253.404 132.946,250.285 129.788,250.285 129.496 C 250.285 129.050,263.454 116.499,263.828 116.589 C 264.038 116.639,274.701 127.068,287.524 139.765 " stroke="none" fill="black" fill-rule="evenodd"></path></g></svg>