<svg id="svg" version="1.1" xmlns="http://www.w3.org/2000/svg" xmlns:xlink="http://www.w3.org/1999/xlink" width="400" height="400" viewBox="0, 0, 400,400"><g id="svgg"><path id="path0" d="M216.800 31.481 C 216.800 31.698,217.184 32.219,217.653 32.638 C 224.655 38.890,229.012 54.874,226.039 63.400 C 225.579 64.720,225.303 65.350,225.426 64.800 C 225.982 62.326,225.985 57.196,225.432 54.763 C 224.313 49.837,223.951 48.593,223.378 47.714 C 223.060 47.227,222.800 46.664,222.800 46.463 C 222.800 45.603,218.088 38.579,217.743 38.924 C 217.663 39.004,217.408 40.092,217.177 41.342 C 215.463 50.611,210.916 54.824,182.400 73.557 C 177.340 76.881,172.423 80.339,171.800 81.010 C 171.580 81.248,170.616 81.965,169.658 82.605 C 162.819 87.169,150.800 100.120,150.800 102.924 C 150.800 103.208,150.611 103.629,150.379 103.861 C 149.865 104.375,148.942 107.739,148.393 111.100 C 148.016 113.408,148.295 117.083,149.030 119.478 C 149.151 119.875,148.957 119.693,148.598 119.072 C 142.798 109.051,150.085 95.811,171.200 78.009 C 177.831 72.417,177.037 73.142,183.865 66.465 C 189.893 60.570,190.711 60.371,188.345 65.375 C 187.935 66.241,187.600 67.102,187.600 67.287 C 187.600 67.675,191.879 65.031,192.838 64.052 C 193.189 63.693,194.449 62.485,195.638 61.367 C 201.761 55.608,206.400 48.147,206.400 44.057 C 206.400 41.398,205.479 41.171,203.555 43.357 C 200.775 46.514,197.781 48.686,188.917 53.976 C 179.827 59.401,176.715 61.200,176.425 61.200 C 176.259 61.200,175.798 61.560,175.400 62.000 C 175.002 62.440,174.477 62.800,174.234 62.800 C 173.330 62.800,158.485 73.291,157.784 74.426 C 157.657 74.632,157.379 74.800,157.167 74.800 C 156.954 74.800,158.834 73.014,161.344 70.832 C 163.854 68.649,166.439 66.354,167.089 65.732 C 167.739 65.109,168.961 64.060,169.805 63.400 C 176.779 57.949,186.678 48.922,187.626 47.151 C 188.166 46.143,187.922 46.199,185.912 47.550 C 182.392 49.913,179.647 51.561,174.200 54.582 C 166.530 58.834,161.056 62.082,160.715 62.582 C 160.558 62.812,160.243 63.023,160.015 63.050 C 159.787 63.078,159.441 63.123,159.247 63.150 C 159.052 63.178,158.799 63.560,158.684 64.000 C 158.551 64.510,158.135 64.803,157.537 64.807 C 157.022 64.811,156.176 65.261,155.658 65.807 C 155.140 66.353,154.369 66.800,153.945 66.800 C 153.522 66.800,153.078 67.054,152.959 67.364 C 152.839 67.674,152.305 68.037,151.771 68.172 C 151.237 68.306,150.800 68.692,150.800 69.031 C 150.800 69.370,150.632 69.544,150.428 69.417 C 150.223 69.291,149.611 69.599,149.067 70.103 C 148.523 70.607,147.251 71.432,146.239 71.938 C 145.228 72.443,144.400 73.034,144.400 73.252 C 144.400 73.469,144.229 73.542,144.020 73.412 C 143.811 73.283,143.442 73.548,143.200 74.000 C 142.958 74.452,142.625 74.739,142.461 74.638 C 142.296 74.536,141.900 74.618,141.581 74.820 C 141.182 75.072,141.157 75.190,141.500 75.194 C 141.775 75.197,142.000 75.399,142.000 75.643 C 142.000 75.886,141.730 75.982,141.400 75.855 C 140.519 75.517,139.617 75.979,139.870 76.638 C 140.021 77.031,139.894 77.134,139.464 76.969 C 138.531 76.611,137.855 77.144,138.403 77.804 C 138.751 78.223,138.680 78.294,138.070 78.134 C 137.556 78.000,137.072 78.248,136.639 78.866 C 136.279 79.380,135.870 79.727,135.729 79.637 C 134.908 79.114,130.375 84.875,125.686 92.400 C 125.206 93.170,124.810 93.586,124.807 93.324 C 124.803 93.062,124.980 92.736,125.200 92.600 C 125.420 92.464,125.600 92.026,125.600 91.626 C 125.600 91.226,126.648 88.832,127.930 86.306 C 130.078 82.070,132.021 79.274,138.428 71.200 C 143.337 65.013,141.675 66.379,130.482 77.729 C 113.356 95.096,107.664 101.196,105.331 104.685 C 104.774 105.518,103.918 106.650,103.428 107.200 C 93.566 118.269,90.597 138.776,97.921 145.223 C 100.116 147.155,99.874 147.166,101.952 145.049 L 103.670 143.298 102.219 141.397 C 99.552 137.904,98.432 131.645,99.534 126.400 L 99.912 124.600 99.962 127.400 C 100.109 135.646,104.386 142.328,107.925 139.837 C 114.255 135.381,118.011 133.234,121.725 131.949 C 124.104 131.126,124.226 130.740,122.937 128.115 C 121.294 124.769,121.254 117.792,122.859 114.353 C 123.991 111.927,126.800 107.553,126.800 108.216 C 126.800 108.439,126.519 109.023,126.175 109.514 C 122.722 114.444,122.749 123.240,126.231 127.805 C 127.640 129.652,127.804 129.675,133.510 128.820 C 136.310 128.400,139.909 127.930,141.509 127.776 C 144.985 127.440,145.191 127.228,143.499 125.734 C 139.240 121.973,136.454 113.812,138.400 110.800 C 138.674 110.377,138.790 110.926,138.794 112.664 C 138.814 120.686,146.852 127.490,154.276 125.768 C 156.599 125.229,160.751 123.781,161.168 123.365 C 161.261 123.272,160.923 122.757,160.418 122.220 L 159.500 121.242 161.960 120.051 C 163.312 119.395,164.953 118.742,165.605 118.599 C 166.257 118.456,166.894 118.172,167.019 117.969 C 167.145 117.766,167.552 117.597,167.924 117.594 C 169.436 117.580,169.841 116.909,168.934 115.921 C 166.422 113.185,164.921 107.989,165.600 104.382 C 166.722 98.425,169.036 95.831,182.800 85.107 L 185.800 82.769 182.000 86.284 C 168.820 98.474,167.273 100.922,168.177 108.157 C 168.706 112.390,172.730 116.373,175.676 115.580 C 177.563 115.071,190.403 114.926,193.098 115.382 C 194.698 115.653,194.795 115.616,194.769 114.735 C 194.624 109.842,195.941 107.569,202.962 100.600 C 208.793 94.811,209.213 94.341,212.620 89.800 C 215.187 86.377,216.557 84.289,217.792 81.916 C 218.217 81.099,218.638 80.504,218.727 80.593 C 218.948 80.815,216.768 86.455,216.174 87.200 C 215.910 87.530,215.559 88.250,215.392 88.800 C 215.226 89.350,214.755 90.229,214.345 90.754 C 213.935 91.279,213.600 91.867,213.600 92.063 C 213.600 92.258,213.119 93.178,212.532 94.109 C 209.992 98.132,209.396 99.034,208.904 99.600 C 208.616 99.930,207.838 100.920,207.174 101.800 C 205.844 103.563,204.123 105.692,202.859 107.139 C 198.066 112.625,201.225 117.934,209.855 118.899 L 214.092 119.372 217.146 116.174 C 220.187 112.989,223.317 109.365,224.420 107.753 C 224.739 107.287,225.989 105.487,227.198 103.753 C 234.470 93.319,238.977 81.422,239.605 71.000 L 239.870 66.600 239.928 70.400 C 240.040 77.790,237.987 87.272,234.732 94.400 C 232.799 98.633,229.887 104.161,229.500 104.333 C 229.335 104.407,229.200 104.707,229.200 105.000 C 229.200 105.293,229.057 105.593,228.883 105.667 C 228.709 105.740,228.131 106.520,227.600 107.400 C 227.068 108.280,225.664 110.318,224.479 111.929 C 221.727 115.672,221.999 115.842,226.187 112.997 C 231.818 109.173,241.600 98.990,241.600 96.953 C 241.600 96.686,241.749 96.407,241.932 96.333 C 242.543 96.088,244.683 91.421,245.847 87.792 C 247.121 83.824,247.555 68.377,246.499 64.600 C 246.253 63.720,245.699 61.740,245.269 60.200 C 244.269 56.621,242.697 52.542,241.552 50.555 C 241.059 49.700,240.353 48.425,239.982 47.723 C 237.865 43.705,232.351 37.632,228.800 35.408 C 227.810 34.788,226.910 34.165,226.800 34.024 C 225.746 32.676,216.800 30.400,216.800 31.481 M238.261 103.938 L 236.352 105.876 237.728 108.238 C 238.485 109.537,240.041 112.580,241.185 115.000 C 242.330 117.420,243.429 119.708,243.627 120.085 C 244.053 120.892,247.555 132.369,247.996 134.400 C 248.596 137.163,248.734 137.301,250.003 136.398 L 251.122 135.601 250.348 132.900 C 249.922 131.415,249.281 129.215,248.922 128.011 C 248.317 125.981,248.318 125.458,248.944 120.811 C 250.169 111.710,248.583 107.592,242.151 103.166 C 240.071 101.735,240.518 101.646,238.261 103.938 M131.771 132.575 C 125.888 134.234,120.560 137.783,114.043 144.384 C 109.403 149.085,109.011 149.173,111.083 145.051 C 112.050 143.128,114.293 139.713,115.553 138.247 C 116.564 137.071,113.447 138.745,110.947 140.721 C 100.207 149.211,94.773 162.001,98.642 169.684 C 100.249 172.874,100.512 172.826,101.196 169.221 C 101.408 168.104,102.035 166.197,102.591 164.983 C 103.146 163.769,103.600 162.714,103.600 162.639 C 103.600 162.300,105.707 158.773,105.833 158.900 C 105.911 158.978,105.616 160.202,105.177 161.621 C 103.586 166.767,104.222 177.575,106.351 181.576 C 107.386 183.523,108.756 181.959,109.611 177.853 C 110.861 171.850,112.288 167.560,114.682 162.600 C 117.317 157.141,119.583 153.973,117.974 158.000 C 115.565 164.025,113.366 176.147,114.527 176.996 C 115.351 177.599,115.409 178.055,114.624 177.754 C 114.199 177.591,114.076 177.805,114.158 178.567 C 114.314 180.036,114.770 180.325,115.469 179.399 C 116.072 178.600,116.072 178.600,115.932 179.400 C 115.852 179.857,115.421 180.253,114.926 180.324 C 114.140 180.436,114.045 180.733,113.899 183.524 C 113.809 185.242,113.330 187.836,112.814 189.400 C 111.583 193.127,111.448 204.130,112.591 207.572 C 114.238 212.533,119.652 216.554,125.549 217.197 C 132.127 217.914,134.915 219.592,135.307 223.071 C 135.677 226.357,139.270 228.804,143.930 228.944 C 146.109 229.010,145.986 228.668,146.988 237.400 C 148.369 249.438,147.253 265.816,144.732 270.528 C 142.889 273.970,156.503 290.104,167.600 297.627 C 170.063 299.297,174.386 302.000,174.593 302.000 C 174.646 302.000,176.019 302.732,177.645 303.627 C 179.270 304.522,181.860 305.798,183.400 306.463 C 184.940 307.128,186.932 308.016,187.826 308.436 C 188.721 308.856,189.642 309.200,189.873 309.200 C 190.104 309.200,191.172 309.534,192.247 309.942 C 207.800 315.848,227.664 316.379,235.491 311.097 C 239.984 308.065,241.006 302.133,237.309 300.549 C 236.479 300.193,235.456 299.725,235.036 299.508 C 234.411 299.185,234.018 299.383,232.869 300.602 L 231.465 302.090 227.833 301.928 C 220.656 301.608,209.438 295.491,206.826 290.474 L 206.344 289.548 205.042 290.541 L 203.740 291.534 202.026 290.767 C 201.084 290.345,200.264 290.000,200.204 290.000 C 200.144 290.000,199.889 290.765,199.638 291.700 C 198.529 295.825,196.411 297.355,194.206 295.623 C 193.983 295.448,193.084 295.073,192.210 294.791 C 191.335 294.509,190.075 293.946,189.410 293.541 C 187.662 292.475,187.202 292.636,188.600 293.823 C 192.733 297.334,197.790 299.733,202.133 300.244 C 204.482 300.520,204.747 300.351,205.164 298.318 L 205.400 297.167 206.800 298.224 C 207.570 298.805,209.342 299.818,210.738 300.474 L 213.276 301.668 214.164 300.834 C 215.309 299.759,215.147 299.729,218.512 301.640 C 224.259 304.904,226.887 305.729,231.660 305.767 C 236.655 305.806,236.802 307.084,232.045 309.099 C 220.604 313.943,200.200 311.052,182.000 302.009 C 174.802 298.433,171.733 296.542,165.390 291.776 C 157.308 285.704,147.403 273.219,148.462 270.440 C 151.116 263.474,151.694 246.829,149.790 232.243 L 149.117 227.085 150.045 225.443 C 151.415 223.018,151.404 218.339,150.025 216.500 C 148.898 214.997,148.199 214.791,148.671 216.100 C 149.471 218.320,148.199 223.935,146.650 225.020 C 144.209 226.730,139.243 225.073,138.760 222.387 C 137.808 217.098,133.730 214.407,125.629 213.722 C 118.185 213.093,115.200 208.770,115.200 198.621 C 115.200 188.909,116.028 187.516,122.264 186.742 C 124.857 186.420,125.859 186.044,129.083 184.182 C 131.162 182.982,132.925 182.000,133.000 182.000 C 133.075 182.000,134.636 181.143,136.468 180.096 C 138.301 179.048,140.655 177.760,141.700 177.233 C 143.793 176.177,143.968 175.654,143.000 173.338 C 142.421 171.953,142.368 171.925,141.500 172.531 C 140.349 173.335,134.222 176.894,132.432 177.799 C 131.289 178.377,131.653 177.841,134.640 174.546 C 139.744 168.917,143.603 162.922,147.868 154.000 C 154.449 140.233,155.502 136.420,153.013 135.380 C 150.999 134.538,151.082 134.474,149.006 138.500 C 147.958 140.535,146.537 143.136,145.850 144.281 C 142.784 149.386,142.161 150.383,140.150 153.400 C 137.796 156.932,134.380 161.756,133.879 162.255 C 133.282 162.850,134.134 161.009,135.015 159.800 C 137.281 156.690,147.200 135.343,147.200 133.577 C 147.200 132.292,135.473 131.531,131.771 132.575 M249.957 137.778 C 248.947 138.315,246.339 139.193,244.160 139.728 C 239.220 140.942,233.066 142.315,231.135 142.634 C 229.254 142.945,228.205 143.945,226.924 146.650 C 225.638 149.366,225.698 149.414,228.615 148.032 C 232.896 146.002,238.788 144.434,246.800 143.193 C 253.804 142.108,255.094 141.376,254.419 138.872 C 253.786 136.521,252.781 136.274,249.957 137.778 M172.879 142.178 C 169.533 143.421,167.647 145.013,165.813 148.142 C 164.143 150.991,164.654 151.099,167.300 148.455 C 170.306 145.453,173.438 143.815,177.800 142.966 C 182.060 142.137,182.413 142.002,181.400 141.585 C 179.770 140.915,175.474 141.214,172.879 142.178 M255.000 142.671 C 253.900 142.741,252.370 142.968,251.600 143.176 C 250.830 143.383,248.760 143.755,247.000 144.001 C 238.669 145.165,227.752 148.535,225.302 150.697 C 223.858 151.972,218.211 152.911,211.400 153.008 C 206.154 153.082,204.002 153.329,197.703 154.575 C 192.718 155.562,180.156 159.567,173.800 162.197 C 169.608 163.932,162.384 167.242,161.200 167.971 C 160.282 168.537,151.753 173.296,148.600 175.002 C 147.060 175.835,144.258 177.346,142.372 178.359 C 134.040 182.835,128.002 186.215,128.011 186.400 C 128.017 186.510,129.501 187.077,131.311 187.659 C 135.032 188.857,133.815 189.087,140.950 185.836 C 142.682 185.046,144.275 184.400,144.488 184.400 C 144.702 184.400,145.354 184.078,145.938 183.683 C 146.522 183.289,147.990 182.539,149.200 182.017 C 150.410 181.494,152.334 180.646,153.475 180.133 C 154.617 179.620,155.669 179.200,155.815 179.200 C 155.960 179.200,156.646 178.943,157.340 178.628 C 167.491 174.021,168.374 174.081,171.625 179.600 C 176.135 187.258,179.189 190.942,182.255 192.427 C 184.405 193.468,189.904 193.352,194.200 192.176 C 195.520 191.815,196.932 191.454,197.337 191.375 C 198.736 191.103,205.811 188.717,209.400 187.308 C 216.253 184.618,218.290 182.445,218.824 177.258 C 218.997 175.576,219.342 172.232,219.591 169.826 C 220.231 163.622,221.190 162.400,225.414 162.400 C 227.397 162.400,227.465 162.482,231.183 169.400 C 233.252 173.248,233.232 174.171,231.160 170.500 C 225.344 160.197,226.841 165.049,233.137 176.909 C 234.162 178.839,236.302 182.195,237.894 184.366 C 242.487 190.633,242.868 192.992,239.778 196.017 C 236.738 198.991,234.339 202.830,234.123 205.062 L 233.935 207.000 235.028 205.200 C 236.924 202.078,238.769 200.063,240.208 199.543 C 240.974 199.266,241.600 198.895,241.600 198.720 C 241.600 198.544,241.873 198.400,242.206 198.400 C 245.891 198.400,244.846 189.143,240.581 184.000 C 238.734 181.773,236.400 178.519,236.400 178.170 C 236.400 178.065,236.931 178.254,237.580 178.590 C 239.067 179.359,243.017 179.382,245.286 178.636 C 246.229 178.326,248.350 177.855,250.000 177.590 C 251.650 177.324,253.900 176.768,255.000 176.354 C 260.339 174.343,261.412 176.982,261.761 192.970 C 261.992 203.554,262.031 203.739,263.947 203.221 C 265.157 202.895,265.092 204.590,264.505 188.800 C 264.121 178.480,264.056 178.139,261.911 175.089 L 261.130 173.978 262.549 172.517 C 263.329 171.714,264.061 170.594,264.174 170.028 C 265.177 165.027,265.207 163.698,264.468 156.800 C 263.944 151.908,263.836 149.461,264.107 148.674 C 264.634 147.150,264.247 145.102,263.154 143.623 C 262.184 142.312,261.649 142.249,255.000 142.671 M206.400 146.061 C 203.115 148.944,202.243 149.115,189.432 149.399 C 175.566 149.706,174.099 150.142,171.931 154.600 C 171.610 155.260,171.144 156.160,170.895 156.600 C 168.393 161.027,167.569 164.647,169.628 162.166 C 171.312 160.138,173.487 159.200,176.510 159.200 C 178.493 159.200,180.258 158.924,181.838 158.366 C 183.137 157.908,185.010 157.263,186.000 156.932 C 186.990 156.602,188.430 156.075,189.200 155.762 C 189.970 155.449,191.410 155.032,192.400 154.836 C 193.390 154.640,195.370 154.206,196.800 153.870 C 198.230 153.535,201.141 152.961,203.269 152.594 L 207.138 151.927 207.543 150.064 C 208.720 144.645,208.579 144.149,206.400 146.061 M258.810 145.996 C 261.145 146.645,261.582 147.885,262.314 155.934 C 263.397 167.845,262.304 170.895,256.382 172.499 C 254.962 172.884,252.090 173.658,250.000 174.220 C 242.995 176.104,238.836 175.968,236.789 173.788 C 235.701 172.631,235.990 172.514,237.500 173.500 C 238.943 174.442,245.955 174.393,249.400 173.415 C 250.720 173.041,252.821 172.479,254.069 172.167 C 262.305 170.104,263.337 166.480,260.576 149.317 C 260.300 147.596,258.619 146.461,255.722 146.037 L 253.400 145.698 255.400 145.651 C 256.500 145.625,258.035 145.781,258.810 145.996 M213.184 156.792 C 215.345 157.948,217.091 171.018,215.767 176.126 C 214.586 180.684,212.626 182.340,205.800 184.550 C 192.931 188.715,189.124 189.322,185.781 187.739 C 184.567 187.164,183.652 186.614,183.749 186.517 C 183.846 186.420,184.492 186.634,185.184 186.992 C 186.868 187.862,189.835 188.162,191.800 187.660 C 196.497 186.459,198.681 185.859,199.400 185.570 C 199.840 185.393,202.090 184.679,204.400 183.984 C 213.360 181.286,215.372 178.932,215.332 171.200 C 215.303 165.699,213.934 158.952,212.543 157.451 C 211.554 156.385,211.852 156.078,213.184 156.792 M120.971 171.280 C 121.516 172.058,121.519 172.264,120.998 173.059 C 120.633 173.616,120.559 174.051,120.804 174.203 C 121.267 174.489,121.337 175.206,120.900 175.188 C 119.845 175.144,117.857 171.494,118.595 170.954 C 119.656 170.179,120.257 170.261,120.971 171.280 M118.800 171.193 C 118.286 171.519,118.329 171.703,119.096 172.471 C 119.808 173.185,120.093 173.267,120.487 172.873 C 121.423 171.937,119.947 170.466,118.800 171.193 M116.272 175.461 C 116.128 175.605,116.395 176.370,116.864 177.161 L 117.718 178.600 116.359 177.288 C 115.227 176.196,115.100 175.913,115.600 175.594 C 116.294 175.152,116.652 175.081,116.272 175.461 M107.677 182.830 C 107.756 183.067,107.991 183.260,108.200 183.260 C 108.409 183.260,108.644 183.067,108.723 182.830 C 108.802 182.594,108.567 182.400,108.200 182.400 C 107.833 182.400,107.598 182.594,107.677 182.830 M146.000 186.896 C 142.504 188.967,139.200 191.325,139.200 191.750 C 139.200 191.894,140.004 192.998,140.986 194.204 C 142.874 196.522,146.369 202.319,148.097 206.000 C 151.472 213.189,152.344 215.810,152.797 220.132 C 153.009 222.149,153.302 224.925,153.448 226.300 C 153.790 229.518,154.202 229.467,154.782 226.135 C 155.037 224.669,155.512 223.094,155.837 222.635 C 156.491 221.711,156.483 221.993,155.662 228.871 C 155.344 231.534,155.484 234.650,156.129 239.200 C 156.624 242.702,158.300 247.644,159.175 248.184 C 159.591 248.442,163.804 245.370,165.289 243.725 C 165.810 243.148,166.077 241.701,166.386 237.781 C 166.836 232.069,167.515 228.731,168.780 226.000 L 169.614 224.200 169.425 225.800 C 169.321 226.680,169.037 228.660,168.795 230.200 C 167.382 239.183,168.381 248.433,171.410 254.418 C 174.261 260.051,181.231 268.400,183.081 268.400 C 185.578 268.400,192.105 257.425,194.263 249.600 C 196.033 243.182,196.387 241.707,196.393 240.724 C 196.397 240.132,196.580 239.536,196.800 239.400 C 197.323 239.077,197.313 241.132,196.771 245.027 C 195.353 255.220,208.291 271.987,216.905 271.122 C 220.988 270.712,226.066 252.432,223.615 246.969 C 223.041 245.689,222.663 243.881,222.535 241.800 C 222.317 238.254,222.736 238.264,223.784 241.828 C 226.502 251.072,237.855 260.400,246.388 260.400 C 250.753 260.400,254.136 248.031,252.412 238.373 C 252.199 237.178,251.945 235.750,251.848 235.200 C 251.751 234.650,251.371 232.894,251.004 231.298 C 249.628 225.326,251.986 228.690,253.600 235.001 C 256.199 245.162,264.492 250.987,270.941 247.182 L 272.456 246.288 270.890 244.644 C 268.745 242.393,268.462 241.468,267.809 234.590 C 267.126 227.390,264.786 219.200,263.412 219.200 C 263.351 219.200,262.513 219.494,261.550 219.853 C 260.226 220.348,258.425 220.503,254.151 220.492 L 248.502 220.478 248.261 222.517 C 247.537 228.630,239.603 232.600,227.599 232.855 C 224.727 232.916,222.747 231.951,220.871 229.577 L 219.943 228.401 218.269 229.553 C 206.093 237.930,187.655 234.681,179.812 222.776 C 178.806 221.249,177.757 220.000,177.480 220.000 C 175.565 220.000,168.878 215.686,165.396 212.204 C 163.010 209.819,156.800 201.997,156.800 201.378 C 156.800 201.238,156.395 200.558,155.900 199.867 C 155.405 199.177,154.799 198.249,154.552 197.806 C 154.306 197.363,153.298 195.560,152.312 193.800 C 151.326 192.040,150.014 189.565,149.395 188.300 C 148.153 185.760,148.014 185.703,146.000 186.896 M213.165 191.582 C 207.208 193.388,206.586 205.600,212.452 205.600 C 214.122 205.600,214.195 204.931,212.682 203.497 C 208.910 199.921,210.742 193.859,215.900 192.849 C 218.647 192.311,219.073 191.835,217.150 191.450 C 215.602 191.140,214.504 191.177,213.165 191.582 M119.436 194.031 C 118.395 195.267,118.300 195.684,118.300 199.000 C 118.300 201.609,118.359 202.000,118.756 202.000 C 118.952 202.000,119.205 201.415,119.317 200.700 C 120.028 196.194,120.808 194.800,122.616 194.800 C 125.010 194.800,125.068 194.897,124.879 198.614 C 124.760 200.944,124.846 202.000,125.153 202.000 C 125.399 202.000,125.603 201.505,125.606 200.900 C 125.634 195.879,127.484 195.340,133.163 198.696 C 133.253 198.749,132.698 200.009,131.930 201.496 C 129.915 205.400,130.720 208.647,133.989 209.795 C 134.985 210.145,136.554 210.804,137.476 211.259 C 138.991 212.006,139.341 212.038,141.103 211.586 C 142.823 211.145,143.181 211.169,144.123 211.786 C 145.437 212.647,145.840 212.031,145.467 209.733 C 145.077 207.335,144.172 206.676,141.582 206.910 C 138.308 207.204,137.898 206.762,137.624 202.642 C 137.366 198.769,137.069 198.298,133.644 196.313 C 127.326 192.651,121.398 191.699,119.436 194.031 M225.275 200.184 C 217.827 202.977,216.710 204.470,222.695 203.632 C 226.367 203.119,228.106 202.231,229.446 200.186 C 230.575 198.463,229.867 198.462,225.275 200.184 M271.000 201.166 C 264.690 205.623,262.713 205.738,252.000 202.270 C 245.293 200.099,239.457 201.341,236.893 205.484 C 234.965 208.599,233.994 209.600,232.903 209.600 C 231.841 209.600,227.813 207.867,227.428 207.245 C 227.242 206.944,224.501 206.354,220.816 205.821 C 217.775 205.382,213.188 206.673,209.800 208.923 C 207.336 210.560,206.901 210.978,201.360 217.057 C 196.026 222.908,190.514 224.511,183.478 222.256 C 180.585 221.329,180.468 221.450,182.140 223.637 C 191.328 235.650,210.465 235.961,222.116 224.286 C 225.734 220.660,230.268 217.200,231.400 217.200 C 232.196 217.200,233.159 215.848,233.549 214.180 C 233.753 213.311,233.938 212.810,233.960 213.066 C 234.034 213.932,237.812 216.358,239.327 216.514 C 240.136 216.597,240.918 216.785,241.066 216.932 C 241.213 217.080,241.933 217.200,242.667 217.200 C 243.400 217.200,244.000 217.401,244.000 217.647 C 244.000 217.906,244.414 218.014,244.986 217.905 C 245.528 217.801,246.024 217.872,246.088 218.063 C 246.293 218.679,250.882 219.214,255.506 219.161 C 264.325 219.060,270.649 213.548,272.654 204.214 C 273.626 199.687,273.478 199.415,271.000 201.166 M201.000 203.154 C 197.337 205.446,194.400 210.624,194.400 214.791 C 194.400 217.966,194.716 217.837,196.575 213.900 C 197.991 210.901,200.026 207.134,202.086 203.700 C 202.976 202.216,202.711 202.083,201.000 203.154 M249.961 204.116 C 250.856 204.505,250.473 204.597,247.199 204.784 C 244.205 204.954,242.951 205.221,241.299 206.039 C 239.053 207.150,238.648 207.042,240.100 205.720 C 242.623 203.422,246.794 202.744,249.961 204.116 M225.800 208.868 C 227.328 209.350,227.174 209.384,222.400 209.630 C 217.389 209.888,216.773 210.046,212.238 212.239 C 211.090 212.794,211.084 212.791,211.796 212.004 C 214.744 208.747,220.982 207.350,225.800 208.868 M255.400 208.812 C 258.260 209.261,261.410 209.781,262.400 209.967 L 264.200 210.305 261.600 210.356 C 258.067 210.424,248.690 209.577,248.220 209.147 C 247.682 208.655,242.906 208.715,241.952 209.226 C 241.514 209.460,240.941 209.580,240.678 209.493 C 240.415 209.405,241.010 209.048,242.000 208.698 C 244.519 207.809,249.278 207.850,255.400 208.812 M266.400 209.600 C 266.070 209.813,265.440 209.973,265.000 209.954 C 264.341 209.926,264.376 209.864,265.200 209.600 C 266.614 209.147,267.101 209.147,266.400 209.600 M223.800 211.990 C 221.266 212.640,217.230 214.821,213.000 217.825 C 205.777 222.955,203.538 224.366,201.260 225.218 C 198.352 226.306,198.284 225.995,201.093 224.452 C 203.275 223.253,206.291 221.148,211.327 217.307 C 215.751 213.933,220.745 211.639,223.600 211.668 L 225.000 211.682 223.800 211.990 M247.977 214.088 C 249.640 214.536,251.585 214.990,252.300 215.095 C 253.015 215.201,253.600 215.448,253.600 215.644 C 253.600 216.523,247.321 215.626,244.574 214.353 C 243.679 213.939,242.655 213.600,242.297 213.600 C 241.940 213.600,241.521 213.396,241.367 213.146 C 241.007 212.563,243.805 212.962,247.977 214.088 M227.580 215.343 C 225.710 216.012,222.300 218.297,219.450 220.790 C 216.062 223.755,215.977 223.048,219.305 219.580 C 222.356 216.401,225.159 214.835,227.800 214.835 L 229.000 214.835 227.580 215.343 M233.558 217.978 C 231.086 218.756,228.000 220.363,228.000 220.874 C 228.000 221.502,235.271 220.758,236.169 220.038 C 236.406 219.848,237.173 219.570,237.872 219.420 C 240.013 218.963,240.319 218.126,238.527 217.629 C 236.606 217.095,236.296 217.117,233.558 217.978 M245.050 221.900 C 243.286 225.379,241.909 226.050,230.967 228.764 C 227.626 229.592,227.507 229.582,224.571 228.238 C 220.857 226.538,220.245 226.905,222.738 229.340 C 223.584 230.166,224.709 230.898,225.238 230.968 C 225.767 231.037,226.530 231.233,226.933 231.402 C 228.748 232.166,236.482 230.685,241.806 228.553 C 244.739 227.379,246.119 225.869,246.827 223.058 C 247.682 219.665,246.556 218.931,245.050 221.900 M261.774 223.171 C 262.567 224.048,263.349 227.035,262.953 227.676 C 262.808 227.910,262.447 227.522,262.148 226.812 C 261.850 226.103,261.155 224.986,260.603 224.331 C 259.020 222.449,260.128 221.352,261.774 223.171 M160.800 223.320 C 160.800 223.606,160.642 224.011,160.449 224.220 C 160.256 224.429,159.725 225.590,159.270 226.800 C 158.525 228.778,158.440 228.872,158.421 227.733 C 158.397 226.264,159.776 222.800,160.386 222.800 C 160.614 222.800,160.800 223.034,160.800 223.320 M257.145 223.847 C 258.571 224.845,259.628 227.795,260.211 232.400 C 260.503 234.710,260.849 236.960,260.979 237.400 C 261.110 237.840,260.687 237.120,260.039 235.800 C 259.391 234.480,258.847 233.089,258.831 232.709 C 258.781 231.584,256.883 226.840,255.970 225.558 C 254.634 223.682,255.373 222.606,257.145 223.847 M164.105 225.700 C 163.984 226.195,163.754 226.780,163.594 227.000 C 163.434 227.220,163.067 228.390,162.779 229.600 C 162.490 230.810,162.087 231.980,161.882 232.200 C 161.647 232.453,161.587 232.305,161.720 231.800 C 161.836 231.360,162.051 230.288,162.198 229.419 C 162.443 227.977,163.800 224.800,164.171 224.800 C 164.256 224.800,164.226 225.205,164.105 225.700 M175.200 229.592 C 175.200 230.247,174.928 231.463,174.596 232.294 C 174.264 233.124,173.833 234.612,173.640 235.602 C 173.290 237.389,173.287 237.384,173.244 234.677 C 173.220 233.180,173.401 231.155,173.647 230.177 C 174.165 228.123,175.200 227.733,175.200 229.592 M246.479 233.200 C 247.723 235.751,247.330 236.199,245.600 234.200 C 243.780 232.097,243.611 231.489,244.898 231.672 C 245.459 231.752,246.052 232.326,246.479 233.200 M182.706 232.733 C 183.108 232.988,183.046 234.022,182.405 237.773 C 181.961 240.368,181.473 244.315,181.320 246.545 L 181.043 250.600 180.546 247.800 C 179.468 241.727,180.322 232.366,181.949 232.406 C 182.087 232.409,182.428 232.557,182.706 232.733 M242.186 238.079 C 243.232 241.600,242.982 243.581,241.843 240.800 C 241.347 239.590,240.640 237.931,240.271 237.113 C 239.902 236.295,239.606 235.215,239.613 234.713 C 239.634 233.206,241.442 235.571,242.186 238.079 M189.200 236.924 C 189.200 237.871,188.936 238.996,188.613 239.424 C 188.073 240.137,188.024 240.017,188.013 237.967 C 188.006 236.738,188.120 235.613,188.267 235.467 C 188.896 234.837,189.200 235.312,189.200 236.924 M234.000 237.200 C 234.000 239.609,233.394 239.806,232.798 237.591 C 232.332 235.864,232.506 235.200,233.424 235.200 C 233.849 235.200,234.000 235.725,234.000 237.200 M204.632 238.938 C 204.745 239.234,204.402 240.771,203.869 242.353 C 202.848 245.385,202.418 245.257,202.405 241.919 C 202.396 239.352,203.978 237.234,204.632 238.938 M210.010 245.500 C 210.015 249.405,210.207 253.320,210.437 254.200 C 211.271 257.388,211.192 257.750,210.203 255.278 C 208.210 250.296,207.658 242.641,209.033 239.058 C 209.729 237.246,210.001 239.042,210.010 245.500 M216.378 238.974 C 216.748 239.419,216.730 240.158,216.298 242.274 L 215.741 245.000 215.100 242.256 C 214.285 238.768,214.899 237.192,216.378 238.974 M154.669 244.400 C 154.929 248.191,156.753 254.524,158.066 256.193 C 159.183 257.613,160.098 256.936,159.566 255.082 C 159.365 254.380,159.200 252.983,159.200 251.978 C 159.200 250.435,159.023 250.020,158.067 249.313 C 157.008 248.529,156.009 246.387,154.844 242.400 C 154.522 241.297,154.485 241.721,154.669 244.400 M258.150 247.100 C 258.262 247.485,258.722 249.060,259.174 250.600 C 259.892 253.050,260.929 260.005,260.622 260.311 C 260.561 260.373,260.281 259.603,260.000 258.601 C 259.720 257.599,259.335 256.683,259.145 256.566 C 258.955 256.449,258.800 256.025,258.800 255.625 C 258.800 255.224,258.378 253.930,257.861 252.748 C 257.345 251.567,256.598 249.835,256.201 248.900 C 255.229 246.612,254.957 246.752,254.649 249.700 C 254.505 251.075,254.114 252.987,253.779 253.948 C 253.235 255.511,253.235 255.794,253.778 256.623 C 254.539 257.784,255.305 261.106,254.946 261.688 C 254.795 261.932,254.259 261.301,253.723 260.247 C 252.674 258.183,252.270 258.179,251.416 260.223 C 251.049 261.102,250.335 261.835,249.422 262.270 C 246.736 263.551,249.040 270.346,254.000 275.774 C 260.296 282.663,261.443 283.274,262.966 280.550 C 263.535 279.532,264.000 278.532,264.000 278.328 C 264.000 278.123,264.340 277.201,264.756 276.278 C 265.172 275.355,265.636 273.430,265.788 272.000 C 265.939 270.570,266.240 268.710,266.456 267.866 C 267.348 264.382,266.722 250.088,265.672 249.969 C 265.522 249.953,265.086 249.879,264.702 249.805 C 263.710 249.615,263.588 250.020,264.070 251.915 C 265.173 256.260,264.020 256.761,262.578 252.564 C 261.828 250.384,260.897 248.372,260.508 248.093 C 260.118 247.813,259.483 247.318,259.095 246.992 C 258.169 246.214,257.901 246.244,258.150 247.100 M162.320 248.540 L 160.440 250.200 160.830 253.600 C 161.457 259.056,164.193 267.211,166.160 269.486 C 166.402 269.766,167.394 271.031,168.364 272.297 C 169.334 273.564,170.650 275.028,171.289 275.551 L 172.450 276.502 173.666 275.351 C 176.947 272.245,177.872 267.520,175.709 264.914 C 174.835 263.861,173.619 262.235,173.007 261.300 C 171.541 259.062,171.442 259.134,171.756 262.200 C 171.902 263.630,171.940 264.800,171.840 264.800 C 171.528 264.800,170.459 260.712,170.167 258.400 C 170.014 257.190,169.484 255.390,168.990 254.400 C 168.495 253.410,167.851 251.800,167.558 250.821 C 166.644 247.765,166.177 254.902,167.036 258.800 C 167.173 259.422,167.117 259.649,166.888 259.400 C 166.197 258.650,165.162 254.020,164.921 250.592 C 164.628 246.452,164.658 246.475,162.320 248.540 M181.476 252.700 C 181.375 253.085,181.293 252.770,181.293 252.000 C 181.293 251.230,181.375 250.915,181.476 251.300 C 181.576 251.685,181.576 252.315,181.476 252.700 M229.232 256.300 C 229.916 259.453,230.904 263.510,231.666 266.289 C 232.980 271.080,232.395 271.491,230.667 266.992 C 229.823 264.797,228.978 262.640,228.788 262.200 C 227.809 259.935,226.400 256.080,226.400 255.669 C 226.400 254.546,225.680 255.337,225.462 256.700 C 225.030 259.406,223.596 263.330,221.497 267.554 L 219.432 271.708 220.781 274.154 C 226.582 284.678,241.057 294.318,243.301 289.152 C 244.556 286.260,244.734 285.638,245.182 282.570 C 245.437 280.826,245.827 278.320,246.049 277.000 C 246.571 273.894,246.665 263.692,246.176 263.260 C 245.969 263.076,244.720 262.697,243.400 262.417 C 242.080 262.136,240.488 261.644,239.863 261.324 C 238.469 260.609,238.258 260.775,238.789 262.171 C 239.383 263.733,239.315 267.396,238.718 266.000 C 236.933 261.824,235.369 259.070,234.455 258.492 C 233.875 258.124,232.484 257.143,231.364 256.312 C 228.859 254.452,228.832 254.452,229.232 256.300 M193.698 256.315 C 193.442 256.912,192.848 258.300,192.377 259.400 C 191.760 260.844,191.512 262.282,191.487 264.575 L 191.453 267.751 190.796 265.788 L 190.139 263.825 188.670 266.007 C 186.855 268.701,186.824 268.248,189.145 272.800 C 192.893 280.148,197.811 286.485,201.596 288.841 L 203.392 289.959 204.322 289.086 C 206.724 286.829,211.154 278.743,212.533 274.100 L 213.141 272.053 211.071 270.983 C 209.932 270.394,208.083 269.212,206.963 268.356 C 204.326 266.342,204.317 266.346,204.546 269.400 C 204.829 273.179,204.209 272.583,203.401 268.300 C 202.729 264.736,202.188 263.398,200.829 261.939 C 200.480 261.564,199.565 259.995,198.797 258.452 C 198.029 256.909,197.238 255.636,197.041 255.623 C 196.545 255.591,197.018 266.312,197.576 267.755 C 198.010 268.878,197.874 269.607,197.332 269.065 C 196.994 268.727,195.173 260.705,194.548 256.800 C 194.263 255.023,194.255 255.018,193.698 256.315 M138.800 268.885 C 137.370 269.568,133.950 271.197,131.200 272.504 C 124.371 275.752,117.764 278.942,107.672 283.866 L 99.144 288.026 94.898 292.236 L 90.652 296.447 92.426 298.070 C 95.665 301.032,106.460 309.002,110.287 311.256 C 110.899 311.616,113.054 312.903,115.076 314.116 C 120.567 317.409,124.824 319.565,134.112 323.757 C 135.383 324.330,136.565 324.800,136.737 324.800 C 136.909 324.800,137.759 325.133,138.625 325.541 C 141.586 326.934,154.374 330.824,161.000 332.347 C 181.394 337.036,213.195 337.159,229.400 332.610 C 230.500 332.301,232.120 331.936,233.000 331.798 C 238.200 330.981,252.722 326.026,261.457 322.087 C 269.593 318.419,284.886 309.801,286.400 308.031 C 286.510 307.903,287.410 307.267,288.400 306.617 C 289.390 305.968,290.986 304.815,291.946 304.054 L 293.692 302.671 291.946 301.116 C 290.986 300.261,289.030 298.721,287.600 297.694 C 286.170 296.667,284.910 295.714,284.800 295.575 C 284.229 294.856,274.828 288.767,270.600 286.377 C 265.307 283.386,263.573 282.701,262.876 283.324 C 262.504 283.656,261.757 283.988,261.215 284.064 C 260.497 284.163,260.155 284.526,259.954 285.400 C 259.580 287.031,258.201 290.733,257.830 291.101 C 257.665 291.266,257.285 291.985,256.985 292.700 C 255.406 296.471,253.058 297.719,250.400 296.200 C 248.917 295.352,248.490 295.465,247.754 296.900 C 247.388 297.615,246.899 298.322,246.669 298.470 C 246.378 298.658,246.395 299.374,246.724 300.801 C 248.290 307.581,246.252 315.706,241.332 322.300 L 239.467 324.800 233.433 324.764 C 225.406 324.717,219.106 324.285,214.000 323.433 C 208.987 322.597,199.804 320.542,198.400 319.941 C 197.850 319.706,196.590 319.282,195.600 318.998 C 192.248 318.039,185.913 315.500,181.600 313.388 C 165.437 305.473,149.815 290.748,142.804 276.819 C 140.594 272.429,140.515 271.694,141.865 268.175 C 142.173 267.373,141.769 267.467,138.800 268.885 M178.612 268.872 C 178.511 269.162,178.041 270.455,177.569 271.744 C 174.965 278.850,185.362 291.983,195.510 294.407 C 198.577 295.140,199.429 289.364,196.676 286.505 C 194.433 284.175,192.664 281.851,190.416 278.281 C 188.494 275.228,188.192 275.111,188.776 277.647 C 189.293 279.888,189.321 281.651,188.827 280.800 C 188.017 279.403,186.800 274.939,186.800 273.360 C 186.800 270.551,186.235 269.510,185.011 270.068 C 183.545 270.736,184.324 278.397,186.305 282.800 C 187.286 284.982,187.301 285.051,186.601 284.200 C 184.993 282.244,182.716 276.727,182.366 273.937 C 181.987 270.923,181.742 270.440,179.934 269.153 C 179.065 268.535,178.753 268.468,178.612 268.872 M164.619 270.900 C 165.765 274.676,169.904 280.907,172.779 283.184 L 174.451 284.508 175.825 283.175 C 177.492 281.560,177.309 278.944,175.356 276.454 C 175.294 276.374,174.758 276.689,174.167 277.154 C 173.576 277.619,172.774 278.000,172.386 278.000 C 171.557 278.000,167.192 273.775,165.716 271.545 C 164.555 269.790,164.223 269.595,164.619 270.900 M214.552 272.847 C 214.037 273.502,213.195 276.402,212.918 278.475 C 212.711 280.024,213.726 284.833,214.548 286.200 C 214.813 286.640,215.263 287.537,215.548 288.192 L 216.067 289.385 215.224 288.621 C 214.463 287.933,212.468 284.182,211.826 282.233 C 211.497 281.232,211.181 281.571,209.030 285.234 C 207.059 288.590,207.109 289.067,209.714 291.728 C 216.487 298.649,229.297 302.842,232.167 299.078 C 235.048 295.302,235.548 290.882,233.258 289.437 C 231.394 288.260,227.057 284.792,226.867 284.326 C 226.406 283.200,225.942 284.242,226.165 285.900 L 226.420 287.800 225.221 285.200 C 224.562 283.770,224.017 282.298,224.011 281.929 C 224.005 281.559,223.774 281.019,223.499 280.729 C 222.598 279.778,218.800 274.079,218.800 273.677 C 218.800 273.040,217.588 272.766,217.363 273.353 C 216.969 274.379,219.389 282.923,221.269 287.144 C 221.696 288.103,221.973 288.960,221.885 289.048 C 221.686 289.247,218.800 284.425,218.800 283.895 C 218.800 283.682,218.454 282.854,218.031 282.054 C 217.064 280.226,216.049 277.235,215.449 274.447 C 215.091 272.780,214.888 272.419,214.552 272.847 M248.016 272.800 C 248.004 272.910,247.824 274.482,247.615 276.293 C 247.364 278.475,247.374 279.980,247.645 280.756 C 248.240 282.464,247.948 285.411,247.323 284.000 C 246.829 282.885,246.793 282.945,245.977 286.200 C 245.701 287.300,245.319 288.404,245.127 288.654 C 243.956 290.178,251.782 296.353,253.494 295.257 C 254.830 294.402,258.800 285.819,258.800 283.786 C 258.800 283.239,258.419 282.479,257.954 282.096 C 257.022 281.329,254.742 278.968,252.841 276.800 C 251.414 275.173,251.161 275.854,252.150 278.659 C 252.991 281.042,253.390 285.818,252.613 284.200 C 252.295 283.540,252.028 282.706,252.018 282.348 C 251.983 281.079,248.118 271.858,248.016 272.800 M236.244 292.059 C 236.138 292.576,235.951 293.630,235.829 294.400 C 235.706 295.170,235.500 296.259,235.371 296.820 C 235.160 297.741,235.361 297.949,237.441 298.968 C 241.556 300.982,242.272 300.888,244.920 297.982 C 247.611 295.030,247.623 294.953,245.747 292.899 C 243.465 290.402,242.021 291.120,241.949 294.788 L 241.898 297.400 241.260 294.699 C 240.596 291.888,240.554 291.847,237.918 291.380 C 236.585 291.144,236.417 291.213,236.244 292.059 " stroke="none" fill="#000000" fill-rule="evenodd"></path></g></svg>